<svg width="22" height="24" viewBox="0 0 22 24" fill="none" xmlns="http://www.w3.org/2000/svg">
<path d="M7.30614 23.0756C6.70237 22.8992 6.04577 22.8204 5.50456 22.5287C2.99682 21.1749 1.68688 18.9995 2.16876 15.9798C2.38167 14.6447 2.86843 13.403 3.28774 12.1328C3.59978 11.1878 3.79156 10.2029 4.03616 9.23504C4.05566 9.15622 4.06135 9.07415 4.07842 8.99532C4.15155 8.65402 4.25638 8.32004 4.6505 8.23796C5.03731 8.15751 5.33798 8.34604 5.56226 8.64427C5.98238 9.20254 5.95963 9.84939 5.82555 10.4751C5.64759 11.3064 5.39161 12.1215 5.18277 12.9463C5.13726 13.1242 5.10069 13.3298 5.14457 13.5013C5.25509 13.9385 5.79223 14.0344 6.15141 13.6841C6.69343 13.1543 7.22163 12.6107 7.75552 12.0719C9.33688 10.4751 10.9199 8.87993 12.4988 7.28069C12.7686 7.00765 13.0603 6.80125 13.4642 6.88332C13.8217 6.95646 14.0688 7.17099 14.1874 7.52286C14.3199 7.91698 14.1866 8.23796 13.9095 8.5175C12.966 9.46908 12.0226 10.4207 11.0783 11.3722C10.4778 11.9776 9.87565 12.5814 9.27675 13.1884C9.13291 13.3339 8.94357 13.5127 9.18411 13.6841C9.26781 13.7443 9.54247 13.6549 9.64649 13.5509C11.4578 11.7444 13.2578 9.92577 15.0577 8.10713C15.36 7.80158 15.7021 7.66019 16.1206 7.82271C16.4798 7.96248 16.7415 8.23959 16.7025 8.61664C16.6716 8.91081 16.5302 9.25048 16.3254 9.46095C14.6766 11.1618 12.9977 12.8341 11.3367 14.5228C11.1791 14.6828 10.8134 14.8502 11.1214 15.133C11.3969 15.3858 11.5472 15.0363 11.6992 14.8844C13.0319 13.5557 14.3572 12.2198 15.6786 10.8806C15.9914 10.5637 16.3368 10.4052 16.7732 10.5751C17.4289 10.8302 17.5785 11.6087 17.0592 12.1377C15.8273 13.394 14.5832 14.6398 13.3447 15.8896C13.0205 16.2163 12.6808 16.5307 12.3842 16.8802C12.2932 16.9874 12.3208 17.1947 12.294 17.3564C12.4451 17.319 12.6442 17.3296 12.7393 17.2353C13.7323 16.2569 14.6977 15.2492 15.7005 14.2814C15.9053 14.0839 16.2255 13.9385 16.5074 13.906C16.8829 13.8629 17.1697 14.1075 17.3225 14.4626C17.4777 14.8226 17.4135 15.1615 17.1518 15.4426C16.7927 15.8286 16.414 16.1976 16.0402 16.5706C14.5084 18.1015 12.9985 19.6561 11.4334 21.1521C10.5241 22.0216 9.4474 22.653 8.18296 22.8911C7.90504 22.9431 7.61981 22.9586 7.33865 22.9903C7.32808 23.0195 7.31671 23.0471 7.30614 23.0756Z" fill="white"/>
<path d="M5.55518 13.4208C5.5763 13.2851 5.58849 13.1478 5.61937 13.0153C5.84934 12.0304 6.085 11.0463 6.31416 10.0606C6.33854 9.95662 6.35723 9.83798 6.33041 9.73884C6.15814 9.09281 6.39949 8.52235 6.62296 7.94133C6.94313 7.1092 7.24299 6.26977 7.55747 5.43439C7.79394 4.80543 8.27583 4.54864 8.81622 4.75504C9.33711 4.95332 9.53214 5.45959 9.30948 6.06743C8.84466 7.33674 8.37253 8.6028 7.90446 9.87049C7.8622 9.98425 7.79151 10.1029 7.79719 10.215C7.80288 10.315 7.87927 10.4637 7.95891 10.4905C8.03935 10.5181 8.18969 10.4499 8.25876 10.3759C8.33596 10.293 8.36034 10.159 8.4026 10.0452C8.995 8.4484 9.58577 6.8516 10.1798 5.25562C10.426 4.59496 10.9038 4.32679 11.4532 4.53157C11.9903 4.73229 12.1658 5.25156 11.9204 5.92034C11.697 6.52899 11.48 7.1409 11.2411 7.74386C11.1688 7.9267 11.0623 8.11116 10.9258 8.25012C9.29241 9.90787 7.65092 11.5583 6.00862 13.2071C5.9046 13.3119 5.77377 13.3899 5.65513 13.481C5.62181 13.4606 5.58849 13.4403 5.55518 13.4208Z" fill="white"/>
<path d="M1.49769 17.059C1.39043 15.9741 1.31485 14.8852 1.16696 13.8061C1.02475 12.7667 0.832156 11.7323 0.615186 10.7051C0.492481 10.1225 0.516859 9.7519 0.823217 9.55849C1.16289 9.34478 1.69516 9.4496 2.08684 9.80797C2.73856 10.4052 3.04248 11.6217 2.72231 12.4344C2.13479 13.9255 1.69597 15.45 1.64803 17.0679C1.59846 17.0655 1.54807 17.0622 1.49769 17.059Z" fill="white"/>
<path d="M18.0242 3.50947C17.9307 3.65818 17.8738 3.78089 17.7877 3.87921C17.3505 4.37816 16.906 4.87061 16.4647 5.36631C16.2778 5.57678 16.0592 5.66617 15.8333 5.45245C15.622 5.25254 15.7009 5.04045 15.8764 4.84623C16.3388 4.33347 16.7882 3.8077 17.2676 3.31201C17.3643 3.21205 17.5829 3.1698 17.7275 3.19661C17.8372 3.21612 17.9177 3.38921 18.0242 3.50947Z" fill="white"/>
<path d="M18.7789 11.4097C19.611 11.4991 20.2936 11.5738 20.977 11.6445C21.2484 11.673 21.4191 11.8119 21.3817 12.0882C21.3443 12.3645 21.1379 12.4449 20.8722 12.4165C20.2026 12.3442 19.5322 12.2792 18.8626 12.2142C18.5839 12.1873 18.3571 12.0541 18.4319 11.764C18.4742 11.5982 18.7041 11.4812 18.7789 11.4097Z" fill="white"/>
<path d="M13.8106 1.4201C13.6936 1.87598 13.5977 2.25547 13.4978 2.63416C13.4003 2.99983 13.3271 3.37689 13.1825 3.72307C13.1289 3.85065 12.8818 3.99448 12.7575 3.96848C12.6332 3.94247 12.4446 3.68894 12.4698 3.57517C12.6364 2.81049 12.8387 2.05232 13.0679 1.3039C13.0996 1.20069 13.3596 1.09424 13.4913 1.11699C13.6189 1.13893 13.7188 1.32584 13.8106 1.4201Z" fill="white"/>
<path d="M18.2215 8.59145C18.1573 8.52888 17.9899 8.43949 17.9607 8.31678C17.9306 8.19083 17.9973 7.94135 18.0875 7.90316C18.8334 7.58867 19.5908 7.29938 20.3563 7.03609C20.4465 7.00521 20.6878 7.16042 20.7155 7.26688C20.7504 7.40096 20.6797 7.67075 20.5814 7.71301C19.863 8.02424 19.126 8.29322 18.3938 8.57357C18.3702 8.58332 18.341 8.58007 18.2215 8.59145Z" fill="white"/>
<path d="M9.5564 3.46058C9.46619 3.54835 9.35324 3.74581 9.22078 3.76044C9.08264 3.77588 8.8226 3.64099 8.79172 3.52559C8.59913 2.79505 8.43742 2.05394 8.3139 1.30795C8.29277 1.17956 8.47967 0.939837 8.62107 0.887017C8.71696 0.851261 8.9965 1.0276 9.02982 1.15274C9.22566 1.8841 9.37193 2.62765 9.5564 3.46058Z" fill="white"/>
</svg>
