<svg width="29" height="15" viewBox="0 0 29 15" fill="none" xmlns="http://www.w3.org/2000/svg">
<path d="M18.0206 8.27899C18.0401 9.55632 16.8805 10.9669 15.2633 11.2348C14.0884 11.4294 13.057 11.1084 12.217 10.255C11.6824 9.71178 11.3857 9.04865 11.3177 8.28301C11.1654 6.56239 12.4438 5.0148 14.1746 4.78162C15.3158 4.62807 16.3072 4.95847 17.1139 5.78298C17.7175 6.39994 18.0181 7.15224 18.0206 8.27899Z" fill="#231F20"/>
<path d="M27.9267 7.78358C27.4783 7.24816 26.998 6.74197 26.5193 6.23408C26.2772 5.97718 26.0112 5.74505 25.7586 5.49937C25.6073 5.35217 25.4493 5.21069 25.2896 5.07218C24.6873 4.54968 24.0653 4.05281 23.4085 3.59914C22.6227 3.05631 21.798 2.5821 20.9322 2.18181C20.014 1.75737 19.0607 1.43163 18.0719 1.21221C17.4412 1.07221 16.8058 0.976483 16.1575 0.968223C15.9933 0.966317 15.8268 0.976271 15.6629 0.949585H14.6253C14.4265 0.970129 14.2263 0.955515 14.0274 0.969705C13.7597 0.988979 13.491 0.986437 13.2243 1.02202C12.3725 1.13596 11.5367 1.32383 10.7164 1.57692C9.55327 1.93591 8.43859 2.41097 7.36246 2.98028C6.32488 3.52946 5.33749 4.1568 4.3914 4.85C3.22801 5.70248 2.14256 6.64539 1.13675 7.67937C1.05012 7.76833 0.970064 7.8613 0.924316 7.97906V8.00024C0.971758 8.1216 1.05393 8.21818 1.14522 8.30819C1.33096 8.49139 1.51967 8.67163 1.70648 8.85356C2.13621 9.27165 2.57844 9.67554 3.03104 10.0686C3.78249 10.7214 4.56804 11.3301 5.39023 11.8913C6.34182 12.5407 7.33789 13.1121 8.38585 13.5916C9.02166 13.8826 9.67357 14.1304 10.3397 14.3429C10.9115 14.5252 11.4933 14.6684 12.0827 14.7802C12.5991 14.8781 13.1186 14.9389 13.6454 14.9469C13.8161 14.9494 13.9889 14.9391 14.1594 14.9664H15.2182C15.4136 14.9471 15.6102 14.9571 15.8059 14.9463C16.0291 14.9338 16.2538 14.9355 16.4754 14.9081C16.997 14.844 17.514 14.7485 18.0246 14.6235C19.291 14.3132 20.5001 13.8515 21.6576 13.2511C22.47 12.8296 23.2484 12.3541 23.9943 11.8246C24.8874 11.1907 25.7232 10.488 26.5128 9.72997C26.8789 9.37818 27.2339 9.01453 27.5664 8.63054C27.7333 8.43802 27.9343 8.26922 28.0296 8.02142V7.97906C27.9907 7.91658 27.9771 7.84351 27.9267 7.78358ZM19.1925 11.7204C18.1557 12.9065 16.8335 13.5724 15.2698 13.7393C13.6712 13.9097 12.2119 13.5175 10.9265 12.5515C9.66234 11.6014 8.88442 10.337 8.66585 8.76461C8.43647 7.1124 8.86557 5.62729 9.93153 4.34254C10.9282 3.14145 12.221 2.45757 13.7593 2.22671C13.8324 2.2157 13.9063 2.20849 13.98 2.20066C14.1907 2.17778 14.4021 2.17355 14.615 2.17291C16.1386 2.18223 17.4913 2.66724 18.6401 3.67094C19.7438 4.63545 20.4084 5.85095 20.5753 7.3136C20.7655 8.9817 20.2949 10.4592 19.1925 11.7204Z" fill="#08C5EB"/>
<path d="M15.2633 11.2348C14.0884 11.4294 13.057 11.1084 12.217 10.255C11.6824 9.71178 11.3857 9.04865 11.3177 8.28301C11.1654 6.56239 12.4438 5.0148 14.1746 4.78162C15.3158 4.62807 16.3072 4.95847 17.1139 5.78298C17.7175 6.39994 18.0181 7.15224 18.0206 8.27899C18.0401 9.55632 16.8805 10.9669 15.2633 11.2348Z" fill="black"/>
<path d="M15.2633 11.2348C14.0884 11.4294 13.057 11.1084 12.217 10.255C11.6824 9.71178 11.3857 9.04865 11.3177 8.28301C11.1654 6.56239 12.4438 5.0148 14.1746 4.78162C15.3158 4.62807 16.3072 4.95847 17.1139 5.78298C17.7175 6.39994 18.0181 7.15224 18.0206 8.27899C18.0401 9.55632 16.8805 10.9669 15.2633 11.2348Z" fill="#08C5EB"/>
</svg>
