<svg width="22" height="22" viewBox="0 0 22 22" fill="none" xmlns="http://www.w3.org/2000/svg">
<path d="M11.9174 12.9882C13.0507 13.1945 14.1561 13.4135 15.2688 13.5905C15.8951 13.6903 16.4567 13.8913 16.9885 14.248C18.1524 15.0286 19.345 15.768 20.5236 16.5273C21.0933 16.894 21.2902 17.477 21.0393 18.024C20.7751 18.599 20.111 18.8506 19.5307 18.593C19.4328 18.5498 19.3383 18.4959 19.2458 18.4413C18.1591 17.8024 17.0623 17.1789 15.9902 16.516C15.5304 16.2319 15.0619 16.0548 14.4902 16.0741C14.5428 16.1513 14.5874 16.2225 14.6373 16.2898C15.533 17.4956 16.4281 18.7022 17.3272 19.9054C17.5521 20.2062 17.6726 20.5323 17.5887 20.9063C17.4849 21.3675 17.1981 21.6743 16.7382 21.7861C16.2558 21.9039 15.8538 21.7388 15.5443 21.3582C15.1257 20.8431 14.7151 20.3207 14.3012 19.8016C13.6956 19.0423 13.0933 18.2809 12.4804 17.5276C12.3965 17.4244 12.2728 17.3359 12.149 17.2873C10.4992 16.6365 8.84545 15.9956 7.19436 15.3494C6.28063 14.992 5.94855 14.2933 6.25068 13.3563C6.4876 12.6229 6.73517 11.8935 6.97741 11.1614C7.00536 11.0776 7.02732 10.9924 7.06725 10.854C6.94613 10.9312 6.87159 10.9778 6.79839 11.0257C5.47272 11.8942 4.14838 12.764 2.82138 13.6298C2.36086 13.9306 1.87571 13.8906 1.55561 13.5366C1.18892 13.1313 1.2355 12.559 1.68205 12.1717C2.40944 11.5408 3.14481 10.9192 3.87686 10.293C4.82985 9.4784 5.78284 8.6645 6.73517 7.84927C6.79107 7.80135 6.84298 7.74878 6.92084 7.67624C6.55282 7.53582 6.20743 7.40206 5.86137 7.27095C4.366 6.70328 2.86996 6.13761 1.37526 5.56861C0.727064 5.32238 0.404299 4.782 0.545384 4.19636C0.709762 3.51156 1.36195 3.15486 2.07469 3.37913C3.82961 3.93149 5.58186 4.49251 7.33411 5.05086C8.66045 5.47345 9.98212 5.91267 11.3151 6.31463C11.9513 6.5063 12.2987 6.93488 12.4731 7.53316C12.7539 8.49746 12.684 9.47574 12.5004 10.4427C12.3493 11.2393 12.1357 12.0239 11.9507 12.8139C11.9393 12.8611 11.932 12.9097 11.9174 12.9882Z" fill="white"/>
<path d="M15.9343 3.64869C15.935 5.18466 14.6705 6.43779 13.1199 6.43779C11.558 6.43779 10.2896 5.18 10.2896 3.63272C10.2902 2.06015 11.5706 0.791051 13.1485 0.798371C14.6905 0.806357 15.9336 2.07812 15.9343 3.64869Z" fill="white"/>
</svg>
