<svg width="53" height="41" viewBox="0 0 53 41" fill="none" xmlns="http://www.w3.org/2000/svg">
<path d="M5.48654 35.833C6.78616 33.5663 8.04211 31.37 9.17382 29.3921C7.11861 27.666 5.19774 26.3663 3.65969 24.7074C-1.35742 19.3041 -1.20295 12.0236 4.04252 6.81504C9.58352 1.31771 16.5249 -0.337876 24.0707 0.0550309C28.8427 0.303536 33.3258 1.64681 37.275 4.4173C41.147 7.13743 43.8739 10.6266 44.0586 15.5933C44.2231 20.0228 42.2216 23.5018 38.9441 26.2387C32.7314 31.4204 25.4475 32.579 17.6465 31.7092C16.7969 31.6152 15.7693 31.8167 15.0338 32.2398C12.0216 33.9659 8.90181 35.3159 5.48654 35.833ZM35.8545 16.1306C35.8176 14.5019 34.4407 13.2023 32.7852 13.2325C31.1061 13.2627 29.8468 14.5691 29.8736 16.2482C29.9038 17.9071 31.2303 19.1765 32.9027 19.1496C34.5415 19.1228 35.8948 17.7392 35.8545 16.1306ZM22.1465 19.1463C23.792 19.1093 25.1084 17.7325 25.0614 16.1071C25.0143 14.4616 23.6576 13.1922 21.9886 13.2325C20.3062 13.2728 19.0637 14.5791 19.1039 16.265C19.1442 17.9407 20.4607 19.1866 22.1465 19.1463ZM14.2581 16.1373C14.2346 14.4717 12.9182 13.209 11.2357 13.2325C9.55329 13.2594 8.30069 14.5489 8.32084 16.2347C8.34099 17.8903 9.66747 19.1731 11.3365 19.1496C13.0021 19.1261 14.2816 17.803 14.2581 16.1373Z" fill="#C3B9B6"/>
<path d="M23.8523 34.181C29.5175 33.5866 34.8268 32.0754 39.3637 28.5426C44.0182 24.9191 46.6275 20.2748 46.0129 13.864C49.3778 15.9394 51.6076 18.5352 52.2994 22.2628C53.1121 26.6284 51.1241 29.9631 45.0021 34.5705C45.4353 35.4772 45.8349 36.4478 46.3487 37.3545C46.8357 38.2108 47.4435 38.9966 48.1252 40.0041C45.1566 39.6044 42.7152 38.4727 40.3107 37.163C39.5988 36.7769 38.635 36.5787 37.8324 36.6761C32.9362 37.2537 28.275 36.619 23.8523 34.181Z" fill="#C3B9B6"/>
</svg>
