<svg width="35" height="32" viewBox="0 0 35 32" fill="none" xmlns="http://www.w3.org/2000/svg">
<path d="M19.6804 29.3168C23.5969 24.5639 27.4653 19.8825 31.3057 15.1809C31.5542 14.876 31.6583 14.4093 31.7173 14.0016C31.8539 13.0635 31.8306 12.0958 32.0403 11.1779C32.2468 10.2724 32.9627 9.86014 33.6119 10.0717C34.3526 10.3113 34.6089 11.0036 34.4955 11.8998C34.393 12.7041 34.4147 13.5411 34.5048 14.3501C34.5716 14.9585 34.5157 15.4516 34.1135 15.9324C29.8537 21.0245 25.5924 26.115 21.3669 31.2336C20.7457 31.9866 20.1292 32.1515 19.2191 31.873C14.2916 30.3732 9.35792 28.8999 4.41489 27.4514C1.13196 26.49 -0.397699 23.4095 0.0883743 19.9432C0.437788 17.4493 1.90067 15.6897 3.50486 13.927C7.45246 9.59254 11.3441 5.20522 15.2374 0.822562C15.8524 0.130236 16.5124 -0.138915 17.427 0.0680048C22.7506 1.27685 28.0787 2.46392 33.4053 3.65721C34.8154 3.97303 34.9816 5.21611 34.2098 6.09357C29.5416 11.4128 24.9324 16.7834 20.3062 22.1415C19.7875 22.7421 19.2285 22.9614 18.4023 22.7218C13.9779 21.443 9.54117 20.2046 5.09974 18.9802C3.50486 18.5414 2.68646 19.2198 2.64919 20.8782C2.62123 22.0933 2.64453 23.2881 3.66481 24.1563C3.98783 24.4317 4.37607 24.6837 4.77673 24.8066C9.23214 26.1741 13.6953 27.5137 18.1569 28.861C18.6508 29.0088 19.1431 29.155 19.6804 29.3168ZM24.3516 10.2895C25.8829 10.4373 26.3068 9.57543 26.8565 8.91422C27.4373 8.21722 27.3442 7.89518 26.4683 7.68359C23.0969 6.86991 19.7254 6.05468 16.3384 5.30479C15.9471 5.21766 15.4268 5.46659 15.0402 5.68907C14.7218 5.8711 14.5059 6.23982 14.259 6.53542C13.6037 7.31953 13.7077 7.68048 14.683 7.92785C16.6754 8.43348 18.671 8.92666 20.668 9.41518C22.0409 9.75123 23.4183 10.0702 24.3516 10.2895Z" fill="white"/>
</svg>
