<svg width="54" height="31" viewBox="0 0 54 31" fill="none" xmlns="http://www.w3.org/2000/svg">
<path d="M17.64 0.251003C21.0173 0.296306 25.1621 0.162173 29.3034 0.330062C30.7868 0.390466 32.2632 0.568126 33.6214 1.21392C35.2328 1.97963 36.4897 3.15485 37.4651 4.65786C38.3178 5.97254 38.5905 7.43468 38.7309 8.94834C38.8393 10.1129 38.8846 11.281 38.8837 12.45C38.8819 17.1109 38.8801 21.7718 38.8712 26.4327C38.8695 27.2064 38.7984 27.9819 38.4226 28.6739C37.76 29.8927 36.6647 30.4381 35.3216 30.4878C34.1242 30.5322 32.925 30.5162 31.7258 30.5154C24.6371 30.51 17.5485 30.5038 10.4608 30.4905C9.36371 30.4887 8.27643 30.3484 7.19715 30.1627C5.10343 29.8021 3.4654 28.6917 2.12318 27.0821C1.07144 25.8207 0.471836 24.3852 0.223112 22.7605C0.0534471 21.6519 0.0134737 20.5486 0.0152503 19.4356C0.0205801 14.2835 0.0410109 9.13133 0.000149178 3.97919C-0.00873381 2.75068 0.378565 1.78954 1.30417 1.02205C1.77852 0.629418 2.34704 0.426886 2.94308 0.352269C3.5569 0.275875 4.18049 0.255444 4.79963 0.254556C8.82451 0.246561 12.8494 0.251003 17.64 0.251003Z" fill="#08C5EB"/>
<path d="M53.9892 15.4133C53.9892 19.4071 53.9901 23.4009 53.9865 27.3956C53.9865 27.7056 53.9723 28.0174 53.9288 28.3239C53.7058 29.8873 51.9781 30.6743 50.6616 29.7984C49.6019 29.094 48.6807 28.2119 47.692 27.4151C46.5195 26.47 45.3709 25.4946 44.2232 24.5202C43.3474 23.7766 42.4129 23.0873 41.8186 22.064C41.275 21.1295 41.0609 20.1097 41.0582 19.0456C41.0511 16.5166 41.0396 13.9867 41.0769 11.4577C41.1035 9.67223 41.8541 8.22786 43.2479 7.0855C45.521 5.22274 47.7498 3.30401 50.0247 1.44303C50.6599 0.92426 51.3563 0.449908 52.2837 0.663988C53.18 0.870962 53.8044 1.50432 53.9368 2.41305C54.0158 2.95758 53.9981 3.50566 53.9981 4.05196C54.0007 7.83878 53.9999 11.6256 53.9999 15.4124C53.9954 15.4133 53.9927 15.4133 53.9892 15.4133Z" fill="#08C5EB"/>
</svg>
