<svg width="22" height="21" viewBox="0 0 22 21" fill="none" xmlns="http://www.w3.org/2000/svg">
<path d="M0.668295 20.4435C0.665908 20.3957 0.662327 20.3563 0.662327 20.3169C0.662327 18.6015 0.662327 16.8873 0.661133 15.1719C0.661133 15.0991 0.683814 15.0489 0.735145 14.9988C4.44172 11.2934 8.14711 7.58801 11.8537 3.88263C11.874 3.86234 11.8955 3.84204 11.9074 3.8313C13.6956 5.61953 15.4827 7.40656 17.2757 9.19957C17.2578 9.21867 17.2243 9.25329 17.1921 9.28552C14.228 12.2496 11.264 15.2137 8.29991 18.1777C7.57172 18.9059 6.84234 19.6341 6.11535 20.3647C6.05925 20.422 6.00314 20.4446 5.92316 20.4446C4.21491 20.4423 2.50786 20.4435 0.799607 20.4435C0.757826 20.4435 0.718433 20.4435 0.668295 20.4435Z" fill="#908784"/>
<path d="M18.5159 8.0059C16.7014 6.19141 14.9096 4.3996 13.113 2.60301C13.1333 2.58153 13.1572 2.55526 13.1835 2.529C13.8842 1.83544 14.5861 1.14187 15.2857 0.44711C15.4719 0.26208 15.6868 0.139124 15.9482 0.102118C16.2968 0.0519809 16.6035 0.14748 16.8674 0.376679C16.9259 0.426817 16.9784 0.484116 17.0333 0.537835C18.2342 1.72442 19.4351 2.91219 20.6384 4.09758C20.8139 4.27067 20.9428 4.46645 20.9906 4.70878C21.067 5.09675 20.9703 5.43935 20.6993 5.72704C20.488 5.95266 20.2695 6.17112 20.0547 6.39315C19.5628 6.90049 19.071 7.40664 18.5792 7.91518C18.5553 7.94383 18.5362 7.97606 18.5159 8.0059Z" fill="#908784"/>
</svg>
