<svg width="34" height="32" viewBox="0 0 34 32" fill="none" xmlns="http://www.w3.org/2000/svg">
<path d="M34 16.0239C33.9909 24.8925 26.4065 32.0085 16.9727 32C7.55172 31.9914 -0.00907496 24.8532 8.1754e-06 15.9744C0.00909131 7.10238 7.58987 -0.00854113 17.0272 7.70003e-06C26.4537 0.00855653 34.0091 7.14341 34 16.0239ZM18.7421 20.8096C18.4933 18.4039 19.992 16.8549 21.6378 15.3759C21.943 15.1007 22.2373 14.8117 22.5135 14.5108C23.2873 13.6679 23.7506 12.6865 23.8069 11.5768C24.0303 7.12973 19.7922 3.88802 15.2106 4.98056C12.2949 5.67643 9.93151 8.61381 10.2639 11.1614C11.3594 11.1614 12.4602 11.1614 13.5466 11.1614C13.8845 9.36098 14.8818 8.28382 16.3733 8.05301C17.8992 7.81706 19.3235 8.48045 20.0083 9.74397C20.7477 11.1066 20.4425 12.4386 19.0855 13.7465C18.4097 14.3979 17.703 15.0237 17.0581 15.7025C15.6829 17.149 15.1071 18.8433 15.3233 20.8096C16.4768 20.8096 17.5504 20.8096 18.7421 20.8096ZM18.6531 27.1648C18.6531 26.0979 18.6531 25.072 18.6531 24.0308C17.5141 24.0308 16.4459 24.0308 15.3451 24.0308C15.3451 25.1079 15.3451 26.1338 15.3451 27.1648C16.4823 27.1648 17.5541 27.1648 18.6531 27.1648Z" fill="#08C5EB"/>
<path d="M18.7421 20.8097C17.5504 20.8097 16.4768 20.8097 15.325 20.8097C15.1089 18.8434 15.6847 17.149 17.0599 15.7026C17.7048 15.0255 18.4115 14.3997 19.0873 13.7466C20.4443 12.4386 20.7495 11.1067 20.0101 9.74405C19.3252 8.48053 17.8992 7.81714 16.375 8.05309C14.8818 8.28391 13.8863 9.36106 13.5484 11.1614C12.4602 11.1614 11.3611 11.1614 10.2657 11.1614C9.93146 8.61389 12.2949 5.67652 15.2106 4.98064C19.7921 3.88639 24.0303 7.12982 23.8069 11.5769C23.7505 12.6883 23.2873 13.6697 22.5134 14.5109C22.2373 14.8118 21.943 15.1007 21.6378 15.376C19.9919 16.855 18.4932 18.404 18.7421 20.8097Z" fill="white" fill-opacity="0.5"/>
<path d="M18.653 27.1645C17.5558 27.1645 16.484 27.1645 15.345 27.1645C15.345 26.1335 15.345 25.1077 15.345 24.0305C16.4458 24.0305 17.514 24.0305 18.653 24.0305C18.653 25.0718 18.653 26.0976 18.653 27.1645Z" fill="white" fill-opacity="0.5"/>
</svg>
