<svg width="34" height="36" viewBox="0 0 34 36" fill="none" xmlns="http://www.w3.org/2000/svg">
<path d="M20.8068 9.71213C24.5152 9.71213 28.2237 9.70864 31.9321 9.71213C33.7636 9.71561 33.9939 9.94935 33.9974 11.8228C34.0009 19.0617 34.0009 26.2972 33.9974 33.5361C33.9974 35.3712 33.7497 35.6154 31.8972 35.6189C22.1988 35.6223 12.5038 35.6223 2.80535 35.6189C0.980782 35.6189 0.719133 35.3607 0.715644 33.5117C0.705178 27.2007 0.771463 20.8898 0.680758 14.5823C0.645871 12.0425 0.345847 9.5063 0.0632663 6.97702C-0.142564 5.12804 0.077221 4.72684 1.88434 4.45473C11.5549 2.98949 21.2254 1.53473 30.8925 0.0450716C32.1798 -0.153782 32.8217 0.296255 32.9892 1.57659C33.1671 2.95461 33.4252 4.32216 33.6241 5.70018C33.8264 7.09564 33.488 7.54218 32.0647 7.76197C28.3144 8.34109 24.5641 8.91322 20.8138 9.48536C20.8103 9.55863 20.8068 9.63538 20.8068 9.71213ZM10.5083 25.3099C10.5327 28.8858 13.3899 31.736 16.9588 31.743C20.587 31.7499 23.4721 28.8439 23.4477 25.2052C23.4233 21.6363 20.5556 18.7756 16.9937 18.7617C13.3899 18.7477 10.4839 21.6782 10.5083 25.3099ZM26.3956 5.98276C27.9899 5.73506 29.4203 5.51528 30.9239 5.28503C30.7564 4.34658 30.6239 3.59303 30.5087 2.94065C28.1434 2.52201 27.1247 3.8477 26.3956 5.98276ZM3.1263 9.40512C5.8021 9.36675 6.30098 8.98649 7.18709 6.3072C5.68 6.54443 4.24267 6.7677 2.73906 7.00493C2.87861 7.87012 2.99373 8.59227 3.1263 9.40512ZM26.8422 15.2102C28.4435 15.2102 29.8843 15.2102 31.3321 15.2102C31.3321 14.3555 31.3321 13.5985 31.3321 12.8519C28.6388 12.5833 28.6388 12.5833 26.8422 15.2102ZM7.82901 12.8554C6.25214 12.8554 4.8183 12.8554 3.40888 12.8554C3.40888 13.7171 3.40888 14.4741 3.40888 15.1335C5.67302 15.9289 6.84521 14.7253 7.82901 12.8554ZM15.068 5.30596C12.298 5.11408 11.6561 5.53272 10.6409 8.19805C13.3481 8.4283 14.0318 7.98175 15.068 5.30596ZM18.5217 7.10959C21.8011 6.88283 22.1953 6.60723 22.9977 4.0012C20.7126 3.81282 19.0834 4.62567 18.5217 7.10959ZM10.8467 15.1579C13.9237 15.6045 14.4993 15.3289 15.7343 12.8903C12.7899 12.4612 12.6119 12.5414 10.8467 15.1579ZM23.7826 12.8798C20.7928 12.4821 20.1579 12.7891 18.9787 15.1788C21.1591 15.7405 22.8756 15.2451 23.7826 12.8798Z" fill="#08C5EB"/>
<path d="M15.2354 25.1845C15.2354 24.4449 15.2215 23.7053 15.2389 22.9657C15.2599 22.104 15.6157 21.6958 16.453 22.2401C17.6112 22.9971 18.7485 23.7925 19.8823 24.5914C20.4893 25.0205 20.4789 25.4915 19.8719 25.9171C18.738 26.716 17.6147 27.5254 16.446 28.2754C15.6401 28.7918 15.2424 28.4324 15.2354 27.5393C15.2285 26.7544 15.2354 25.9694 15.2354 25.1845Z" fill="#08C5EB"/>
</svg>
