<svg width="35" height="35" viewBox="0 0 35 35" fill="none" xmlns="http://www.w3.org/2000/svg">
<path d="M17.2907 6.17372e-06C26.9436 0.00852796 34.703 7.76619 34.5837 17.4941C34.4695 26.7919 27.1089 34.5803 17.2373 34.5666C7.45998 34.5541 -0.00794732 26.6703 6.34727e-06 17.2947C0.00796001 7.67018 7.70143 -0.00794749 17.2907 6.17372e-06Z" fill="#FFCE09"/>
<path d="M14.9006 13.5629C14.9012 11.7654 14.8887 9.96786 14.9046 8.17033C14.9177 6.71652 15.8505 5.70526 17.1737 5.66606C18.5996 5.62402 19.6711 6.62959 19.6842 8.14818C19.716 11.8057 19.7154 15.4644 19.6893 19.122C19.6785 20.6093 18.5491 21.7518 17.2418 21.7137C15.8465 21.6728 14.916 20.628 14.9035 19.0498C14.8898 17.221 14.9006 15.3917 14.9006 13.5629Z" fill="#080446"/>
<path d="M14.9108 26.4319C14.9238 25.0747 15.9464 24.0549 17.2872 24.0623C18.6564 24.0697 19.7364 25.1656 19.7091 26.5205C19.683 27.8181 18.5785 28.9129 17.2872 28.9208C15.9345 28.9288 14.8977 27.8426 14.9108 26.4319Z" fill="#080446"/>
</svg>
