<svg width="18" height="18" viewBox="0 0 18 18" fill="none" xmlns="http://www.w3.org/2000/svg">
<path d="M17.4634 15.2811L11.1612 8.97885L17.4615 2.67857C18.0674 2.07267 18.0672 1.09664 17.4611 0.490558C16.8551 -0.115527 15.879 -0.115677 15.2731 0.490223L8.9782 6.78515L2.67599 0.482935C2.06454 -0.117789 1.08852 -0.117937 0.482619 0.487962C-0.123282 1.09386 -0.123132 2.06989 0.482953 2.67597L6.7798 8.97282L0.484878 15.2677C-0.121023 15.8736 -0.120872 16.8497 0.485213 17.4558C1.0913 18.0618 2.06732 18.062 2.67322 17.4561L8.96815 11.1612L15.265 17.458C15.8711 18.0641 16.8471 18.0643 17.453 17.4584C18.0696 16.8632 18.0695 15.8872 17.4634 15.2811Z" fill="#C3B9B6"/>
</svg>
