<svg width="32" height="32" viewBox="0 0 32 32" fill="none" xmlns="http://www.w3.org/2000/svg">
<path d="M0 11.4225C0 11.248 0 11.0735 0 10.899C0.0091513 10.8738 0.0228782 10.8493 0.0261466 10.8234C0.136289 9.96867 0.425535 9.17614 0.860549 8.43598C1.04652 8.11975 1.26223 7.82743 1.56814 7.6117C1.80934 7.44147 2.06721 7.37633 2.35515 7.45849C2.53262 7.50923 2.7114 7.55605 2.8856 7.61628C3.76707 7.92039 4.65866 7.97048 5.54144 7.65785C6.41016 7.35014 7.11317 6.82833 7.42758 5.91468C7.79331 4.85208 7.83678 3.7646 7.55047 2.68072C7.42301 2.19819 7.52073 1.80929 7.84822 1.46622C7.99693 1.31008 8.16753 1.16866 8.34762 1.0495C9.24575 0.456001 10.2455 0.141738 11.3064 0.0153786C11.931 -0.0589314 12.2595 0.130936 12.5422 0.696936C12.5664 0.745385 12.586 0.796452 12.6072 0.846538C13.0328 1.83679 13.6881 2.62638 14.7094 3.012C16.4857 3.68276 18.518 2.79726 19.2671 0.981082C19.3975 0.665182 19.605 0.411153 19.859 0.192151C20.0123 0.0598992 20.192 -0.00786374 20.3995 0.00392111C21.5359 0.0680831 22.5802 0.403297 23.479 1.11202C23.7568 1.33103 23.9826 1.62008 24.213 1.89343C24.3882 2.10097 24.4219 2.35664 24.3526 2.61983C24.3153 2.76158 24.2787 2.90561 24.2209 3.0395C23.9542 3.65886 23.8649 4.29917 23.9319 4.97156C24.0669 6.32649 25.1095 7.57405 26.4191 7.86965C27.3931 8.08964 28.3445 7.97441 29.2479 7.53608C29.6701 7.33115 30.1898 7.3868 30.5192 7.72169C30.7235 7.92923 30.915 8.161 31.0618 8.41143C31.5743 9.28744 31.8629 10.2436 31.989 11.2473C32.0622 11.8294 31.7651 12.323 31.2353 12.5227C30.633 12.7499 30.1251 13.1064 29.6763 13.566C28.0157 15.2673 28.4684 18.2469 30.8464 19.2381C31.0824 19.3363 31.3053 19.4908 31.4984 19.6604C31.7867 19.9128 31.9567 20.2434 31.9387 20.6408C31.9272 20.8958 31.9135 21.1535 31.8658 21.4032C31.6965 22.2871 31.372 23.1068 30.799 23.8113C30.4006 24.3013 29.679 24.687 28.8406 24.395C28.0618 24.1236 27.2506 24.0417 26.4289 24.2123C25.9243 24.317 25.4334 24.4516 25.0448 24.8205C24.7425 25.1076 24.4807 25.4284 24.2964 25.8036C23.7715 26.8714 23.814 27.9471 24.266 29.0264C24.3183 29.1508 24.3702 29.2808 24.3892 29.413C24.4647 29.9417 24.2653 30.3679 23.8532 30.6874C22.8979 31.4282 21.8173 31.8656 20.6136 31.9909C20.3417 32.0191 20.0838 31.9877 19.8573 31.8093C19.6207 31.623 19.4475 31.385 19.3354 31.1149C19.1001 30.5473 18.7703 30.0497 18.3333 29.6202C17.1986 28.5046 15.5494 28.3013 14.2482 29.1354C13.4818 29.6268 12.9086 30.2929 12.5749 31.1493C12.3945 31.6122 12.0653 31.8901 11.5803 31.9651C11.3787 31.9962 11.1659 32.0034 10.9642 31.9765C10.054 31.8548 9.20686 31.534 8.4035 31.0989C7.97634 30.8675 7.58152 30.5866 7.26907 30.2046C7.02329 29.904 6.94551 29.5633 7.05663 29.1937C7.12853 28.955 7.23377 28.7265 7.32496 28.4938C7.77403 27.35 7.675 25.9352 6.61214 24.8847C6.32714 24.6032 5.99214 24.41 5.60484 24.3076C4.68971 24.066 3.78373 24.1282 2.88495 24.393C2.09924 24.6244 1.51977 24.4153 1.07168 23.7271C0.701055 23.1579 0.410501 22.5496 0.234992 21.8926C0.136943 21.526 0.0771324 21.1492 0.000326832 20.7773C0.000326832 20.7011 0.000326832 20.6248 0.000326832 20.5485C0.0111123 20.4909 0.0251661 20.4336 0.0326832 20.3757C0.0938008 19.8915 0.31049 19.5439 0.791587 19.3517C1.59755 19.0296 2.24436 18.4829 2.76402 17.7928C3.65986 16.6035 3.61215 15.0103 2.65191 13.9074C2.13062 13.3087 1.51225 12.8343 0.77165 12.5368C0.502341 12.4288 0.311144 12.2481 0.19806 11.9898C0.11766 11.8064 0.0650396 11.6117 0 11.4225ZM15.9468 23.4407C20.0694 23.4577 23.4172 20.1233 23.4427 15.975C23.4678 11.8529 20.1348 8.50996 15.9762 8.48672C11.8741 8.46381 8.53718 11.8042 8.50972 15.9377C8.48358 19.883 11.7114 23.4538 15.9468 23.4407Z" fill="white"/>
</svg>
