<svg width="33" height="24" viewBox="0 0 33 24" fill="none" xmlns="http://www.w3.org/2000/svg">
<path d="M25.7078 4.92935C24.7191 5.45196 23.7324 5.9797 22.7406 6.49717C16.9724 9.50653 11.2011 12.5108 5.43806 15.5294C5.10642 15.7029 4.86822 15.7039 4.5602 15.4862C3.21929 14.5406 1.85578 13.6278 0.512816 12.6853C-0.207952 12.1791 -0.172016 11.6709 0.640131 11.3547C2.89689 10.4758 5.16289 9.61639 7.44019 8.7909C14.8809 6.09059 22.3289 3.40876 29.7747 0.721794C30.3364 0.519528 30.9011 0.324448 31.4699 0.141689C31.6701 0.0780318 31.8847 0.0626308 32.2307 0C32.0448 0.370651 31.936 0.629388 31.7923 0.86759C29.6546 4.40777 27.517 7.94692 25.3701 11.4809C23.0199 15.3507 20.6676 19.2205 18.302 23.081C17.609 24.2114 17.4447 24.233 16.343 23.505C15.3594 22.8551 14.3768 22.2011 13.4127 21.5214C13.1057 21.3047 12.8932 21.277 12.5646 21.5019C11.4927 22.235 10.3982 22.9331 9.30166 23.6282C8.55112 24.1036 8.34372 23.9927 8.32934 23.121C8.30367 21.5809 8.30367 20.0408 8.26877 18.5018C8.26158 18.1691 8.37863 17.9802 8.63942 17.7861C14.2197 13.633 19.7949 9.4706 25.3701 5.30924C25.5004 5.2117 25.6267 5.108 25.7561 5.00636C25.7397 4.98069 25.7232 4.95502 25.7078 4.92935Z" fill="#130229" fill-opacity="0.5"/>
</svg>
