<svg width="66" height="66" viewBox="0 0 66 66" fill="none" xmlns="http://www.w3.org/2000/svg">
<path d="M49.1232 49.1232C58.1665 40.0798 58.1665 25.4177 49.1232 16.3744C40.0799 7.33106 25.4177 7.33106 16.3744 16.3744C7.33107 25.4177 7.33107 40.0798 16.3744 49.1232C25.4177 58.1665 40.0799 58.1665 49.1232 49.1232Z" fill="#FFD05D"/>
<path d="M44.8624 12.9856C47.1689 16.5852 48.5055 20.8667 48.5055 25.4579C48.5055 38.2454 38.1386 48.6151 25.3484 48.6151C20.9066 48.6151 16.7582 47.3627 13.2346 45.1947C17.3504 51.6197 24.5524 55.8768 32.7486 55.8768C45.5361 55.8768 55.9058 45.5099 55.9058 32.7197C55.903 24.374 51.4857 17.0606 44.8624 12.9856Z" fill="#FDC453"/>
<path d="M12.7375 35.1921C12.7375 23.3175 22.3627 13.6922 34.2374 13.6922C41.1785 13.6922 47.3482 16.9821 51.2792 22.0868C47.5682 15.6401 40.608 11.3015 32.6373 11.3015C20.7626 11.3015 11.1373 20.9268 11.1373 32.8014C11.1373 37.735 12.7999 42.28 15.5954 45.9068C13.778 42.7527 12.7375 39.0933 12.7375 35.1921Z" fill="#FFD77F"/>
<path d="M25.9216 27.1319C25.9216 28.7211 25.1582 30.0088 24.2155 30.0088C23.2728 30.0088 22.5094 28.7211 22.5094 27.1319C22.5094 25.5426 23.2728 24.2549 24.2155 24.2549C25.1582 24.2549 25.9216 25.5426 25.9216 27.1319Z" fill="#303030"/>
<path d="M42.9852 27.1319C42.9852 28.7211 42.2218 30.0088 41.2791 30.0088C40.3364 30.0088 39.573 28.7211 39.573 27.1319C39.573 25.5426 40.3364 24.2549 41.2791 24.2549C42.2218 24.2549 42.9852 25.5426 42.9852 27.1319Z" fill="#303030"/>
<path d="M17.1875 34.9395C18.0704 42.7527 24.6964 48.8272 32.746 48.8272C40.7956 48.8272 47.4243 42.7527 48.3045 34.9395H17.1875Z" fill="#695342"/>
<path d="M21.9988 44.5512C24.8024 47.2 28.5841 48.8273 32.746 48.8273C36.7287 48.8273 40.3636 47.3385 43.1265 44.888L42.9825 44.5512C32.5368 39.4574 22.1428 44.4805 21.9988 44.5512Z" fill="#F06669"/>
</svg>
