<svg width="32" height="32" viewBox="0 0 32 32" fill="none" xmlns="http://www.w3.org/2000/svg">
<path d="M13.0026 10.4221C14.9472 10.4221 16.8332 10.4221 18.7751 10.4221C18.7751 10.9388 18.7778 11.4448 18.7745 11.9501C18.7711 12.4474 18.8611 12.9194 19.1065 13.3587C19.7058 14.4354 20.8884 14.948 22.1171 14.6567C23.229 14.3934 24.0764 13.3341 24.1064 12.1501C24.1204 11.5854 24.109 11.0208 24.109 10.4088C24.257 10.4088 24.375 10.4088 24.493 10.4088C26.6603 10.4088 28.8276 10.4088 30.9942 10.4094C31.6122 10.4094 31.8002 10.6448 31.6535 11.2434C30.7362 14.9827 29.8149 18.7206 28.8983 22.4599C28.2956 24.9165 27.695 27.3731 27.0983 29.8317C26.7756 31.161 25.7317 31.9977 24.353 31.9984C18.6851 32.001 13.0172 31.9997 7.35001 31.999C5.98737 31.999 4.93539 31.179 4.61273 29.8651C3.81675 26.6218 3.02476 23.3779 2.22944 20.1346C1.50479 17.1813 0.778139 14.23 0.0534869 11.2774C-0.103843 10.6361 0.0748199 10.4094 0.737474 10.4094C2.92676 10.4088 5.11606 10.4141 7.30535 10.4021C7.59734 10.4008 7.69467 10.4774 7.68134 10.7741C7.65934 11.2621 7.65401 11.7528 7.68601 12.2401C7.782 13.6794 8.91998 14.738 10.346 14.74C11.7379 14.742 12.8846 13.6741 12.9879 12.2527C13.0226 11.7774 12.9986 11.2981 13.0012 10.8201C13.0026 10.7001 13.0026 10.5801 13.0026 10.4221Z" fill="#08C5EB"/>
<path d="M9.00206 9.19417C9.00206 8.41686 9.00339 7.63954 9.00206 6.86155C8.99473 3.44695 11.606 0.474344 14.9819 0.0556854C19.1852 -0.465638 22.7911 2.73763 22.7771 6.97488C22.7718 8.66285 22.7851 10.3515 22.7751 12.0395C22.7698 13.0094 21.8751 13.6448 20.9845 13.3328C20.4478 13.1448 20.1112 12.6554 20.1098 12.0455C20.1072 10.3462 20.1018 8.64685 20.1085 6.94755C20.1172 4.60626 18.2459 2.67297 15.9519 2.6643C13.562 2.65563 11.6727 4.5376 11.6733 6.92355C11.6733 8.64485 11.6747 10.3668 11.6667 12.0881C11.664 12.6601 11.32 13.1408 10.814 13.3261C10.2934 13.5168 9.72738 13.3814 9.35139 12.9714C9.08939 12.6854 8.99873 12.3388 8.99939 11.9595C9.00139 11.0375 9.00006 10.1155 9.00006 9.19417C9.00073 9.19417 9.00139 9.19417 9.00206 9.19417Z" fill="#08C5EB"/>
</svg>
