<svg width="36" height="34" viewBox="0 0 36 34" fill="none" xmlns="http://www.w3.org/2000/svg">
<path d="M18.2376 0.00140335C22.7288 0.00140335 27.2199 -0.0028944 31.7132 0.00355222C34.4595 0.00570109 35.9938 1.55289 35.9959 4.32279C36.0002 10.4514 36.0024 16.58 35.9959 22.7085C35.9938 25.3882 34.4272 26.9483 31.7433 26.9526C27.3596 26.959 22.9738 26.9655 18.5901 26.9418C17.9497 26.9375 17.6166 27.0686 17.3351 27.7283C15.8567 31.1837 13.1964 33.165 9.44015 33.3304C5.64094 33.498 2.72492 31.7811 1.02086 28.3751C-0.683193 24.967 -0.206143 21.6921 2.0953 18.6515C2.3854 18.2668 2.58739 17.7081 2.59169 17.2289C2.62607 12.1339 2.61318 7.03896 2.61533 1.94398C2.61533 0.349521 2.9613 0.00355222 4.55361 0.00140335C9.11137 -0.000745527 13.6734 0.00140335 18.2376 0.00140335ZM5.23051 16.1717C11.2882 13.7155 17.6317 17.4997 18.1001 24.3718C22.8255 24.3718 27.5573 24.3976 32.287 24.3224C32.6673 24.3159 33.3335 23.6412 33.3614 23.2415C33.4817 21.5181 33.413 19.7796 33.413 17.9681C32.3471 17.9681 31.393 17.9767 30.4368 17.966C27.74 17.9402 25.7286 16.0234 25.7265 13.4791C25.7243 10.9349 27.7335 9.00733 30.4261 8.9837C31.4081 8.9751 32.3901 8.98155 33.428 8.98155C33.428 7.41072 33.4302 5.99031 33.428 4.56991C33.4259 2.89164 33.1035 2.56501 31.4468 2.56501C23.0726 2.56286 14.6963 2.56501 6.32213 2.56501C5.97617 2.56501 5.62805 2.56501 5.23051 2.56501C5.23051 7.14641 5.23051 11.6225 5.23051 16.1717ZM9.07699 17.9724C5.54854 17.9531 2.64541 20.7982 2.61103 24.3095C2.57665 27.8787 5.46903 30.8012 9.02971 30.8012C12.5453 30.7991 15.4334 27.9217 15.4441 24.4083C15.4548 20.8885 12.5904 17.9918 9.07699 17.9724ZM33.3786 11.5602C32.1881 11.5602 31.1201 11.5151 30.0564 11.5731C29.0701 11.6268 28.3352 12.4434 28.2944 13.3932C28.2535 14.3408 28.9326 15.2734 29.8953 15.3508C31.0471 15.4432 32.2118 15.3723 33.3765 15.3723C33.3786 14.0572 33.3786 12.8603 33.3786 11.5602Z" fill="#08C5EB"/>
<path d="M10.3124 23.1039C10.942 23.1039 11.404 23.1189 11.866 23.1017C12.7664 23.0673 13.4304 23.3682 13.5078 24.3588C13.5722 25.1883 12.934 25.6567 11.8166 25.6718C11.3589 25.6782 10.9012 25.6718 10.3124 25.6718C10.3124 26.3315 10.3296 26.9267 10.3081 27.5177C10.2759 28.36 9.8289 28.8822 8.9758 28.8564C8.18072 28.8306 7.77028 28.3127 7.75094 27.5198C7.7359 26.9547 7.74879 26.3874 7.74879 25.7384C7.39208 25.7148 7.08694 25.6782 6.77965 25.6761C5.14221 25.6589 4.52333 25.3 4.54267 24.3631C4.56201 23.4412 5.15295 23.1168 6.83122 23.106C7.08049 23.1039 7.32761 23.106 7.74879 23.106C7.74879 22.4893 7.74235 21.9027 7.75094 21.3139C7.76384 20.4737 8.16997 19.9235 9.02737 19.9214C9.88477 19.9192 10.2952 20.4715 10.3124 21.3074C10.321 21.8661 10.3124 22.4291 10.3124 23.1039Z" fill="#08C5EB"/>
</svg>
