<svg width="33" height="33" viewBox="0 0 33 33" fill="none" xmlns="http://www.w3.org/2000/svg">
<path d="M0 17.3347C0.271072 16.2723 1.08328 15.7244 1.99111 15.2924C3.12119 14.7546 4.32906 14.5424 5.57599 14.4977C7.00105 14.4465 8.39951 14.563 9.75117 15.0462C10.4866 15.3092 11.1786 15.6523 11.7123 16.2413C11.8948 16.4426 12.0484 16.6753 12.1854 16.9107C12.3191 17.14 12.2861 17.2047 12.0369 17.2946C11.4156 17.5188 10.8429 17.8357 10.299 18.2041C9.65856 18.6378 9.14168 19.1924 8.75241 19.8629C8.36416 20.5319 8.50895 20.4599 7.74288 20.5394C6.26192 20.6926 4.78433 20.6831 3.33266 20.2942C2.51608 20.0753 1.74159 19.7527 1.0496 19.2577C0.528337 18.886 0.136378 18.4179 0 17.7721C0 17.6263 0 17.4805 0 17.3347Z" fill="#08C5EB"/>
<path d="M0 21.5401C0.0915919 21.2795 0.181837 21.0185 0.276123 20.7589C0.288582 20.7245 0.321582 20.6979 0.353908 20.6565C0.664378 21.0444 1.0294 21.3549 1.44998 21.6C2.21942 22.0486 3.05688 22.3072 3.92431 22.4769C4.89141 22.6661 5.86861 22.7436 6.85289 22.6799C7.35597 22.6473 7.85703 22.589 8.33587 22.5442C8.5002 22.9325 8.6652 23.3157 8.82245 23.7019C8.83996 23.7447 8.82683 23.81 8.80763 23.8561C8.74972 23.9956 8.66621 24.1259 8.62075 24.2686C8.5497 24.4916 8.3985 24.5653 8.17962 24.602C7.13743 24.7768 6.09019 24.7738 5.0426 24.7024C3.8903 24.6239 2.79153 24.3283 1.75102 23.8242C1.62003 23.7609 1.49173 23.6905 1.36849 23.6137C0.703102 23.1999 0.147827 22.6978 0 21.8765C0 21.7644 0 21.6522 0 21.5401Z" fill="#08C5EB"/>
<path d="M0 25.6778C0.0565714 25.4683 0.0963062 25.2522 0.174765 25.0511C0.26501 24.8195 0.338755 24.803 0.510827 24.9747C1.58973 26.0529 2.96596 26.4536 4.41291 26.6843C5.69115 26.8884 6.97108 26.8533 8.26819 26.6563C8.27189 26.7197 8.27795 26.7779 8.27863 26.8358C8.28502 27.3736 8.29007 27.9117 8.29613 28.4495C8.29849 28.6717 8.28267 28.7087 8.0621 28.7333C7.57822 28.7879 7.09298 28.8542 6.60707 28.8653C5.53962 28.8892 4.47521 28.8249 3.43436 28.5673C2.51945 28.341 1.65337 27.9952 0.905817 27.4015C0.431021 27.0254 0.0794694 26.5701 0 25.9468C0 25.8573 0 25.7674 0 25.6778Z" fill="#08C5EB"/>
<path d="M33.0002 26.0476C32.8382 26.7757 32.3567 27.2616 31.762 27.6532C30.9006 28.2206 29.9359 28.522 28.9301 28.7014C27.5713 28.9439 26.2082 28.9335 24.8441 28.7412C24.7643 28.7301 24.7067 28.723 24.7101 28.6176C24.729 28.0071 24.7421 27.3966 24.7583 26.7861C24.7589 26.7588 24.7694 26.7322 24.7812 26.678C25.0526 26.7086 25.3216 26.7487 25.5923 26.7679C27.3013 26.8878 28.988 26.8107 30.6094 26.182C31.2411 25.9372 31.8324 25.6227 32.3307 25.1556C32.4439 25.0496 32.5422 24.9277 32.6456 24.8152C32.8685 25.0206 32.9197 25.3055 33.0002 25.5772C33.0002 25.7335 33.0002 25.8907 33.0002 26.0476Z" fill="#08C5EB"/>
<path d="M18.6124 8.21938C18.6124 8.31905 18.613 8.39145 18.6124 8.46419C18.5932 10.3812 18.5747 12.2986 18.5524 14.2156C18.5501 14.4224 18.5211 14.6291 18.5093 14.8359C18.4632 15.6451 17.4671 16.4165 16.6893 16.462C15.801 16.5138 15.078 16.1003 14.6702 15.3114C14.5332 15.046 14.4682 14.782 14.4695 14.48C14.48 12.4673 14.4749 10.4546 14.4749 8.44196C14.4749 8.37563 14.4749 8.30929 14.4749 8.21938C14.4025 8.21938 14.3432 8.21938 14.284 8.21938C13.5041 8.2177 12.7239 8.21702 11.944 8.21332C11.2564 8.20995 10.7345 7.92002 10.4617 7.27989C10.2385 6.75559 10.2647 6.23837 10.6654 5.78782C11.9248 4.37151 13.1839 2.95487 14.4476 1.54227C14.7951 1.15367 15.1551 0.775521 15.5158 0.399051C15.9677 -0.0723776 16.8098 -0.142418 17.3106 0.27648C17.6621 0.570449 17.9938 0.894051 18.3006 1.23449C19.6559 2.73801 21.0022 4.24995 22.3451 5.76458C22.7522 6.22389 22.7997 6.7593 22.5542 7.30312C22.3107 7.84325 21.8891 8.17325 21.2729 8.18638C20.4597 8.20389 19.6462 8.20928 18.8329 8.21938C18.7663 8.22005 18.6999 8.21938 18.6124 8.21938Z" fill="#08C5EB"/>
<path d="M16.4535 18.6157C17.7142 18.5992 18.949 18.7531 20.1404 19.1834C20.9428 19.4734 21.6644 19.8899 22.2298 20.5445C22.7464 21.1425 22.8178 21.8874 22.4123 22.5693C22.0641 23.1549 21.5308 23.5313 20.9374 23.831C20.006 24.3015 19.0073 24.5419 17.9782 24.6735C16.7609 24.8291 15.5483 24.7958 14.3435 24.5661C13.3511 24.3769 12.3992 24.0735 11.5493 23.5074C11.1725 23.2566 10.8377 22.9592 10.6041 22.5652C10.2411 21.9534 10.2437 21.3422 10.634 20.7435C11.0206 20.1502 11.5866 19.7687 12.2083 19.4663C13.4461 18.8639 14.7637 18.616 16.1339 18.6157C16.2403 18.6157 16.3471 18.6157 16.4535 18.6157Z" fill="#08C5EB"/>
<path d="M23.7095 19.0059C24.1024 18.9214 24.487 18.816 24.8783 18.7588C26.5778 18.5099 28.2662 18.5355 29.929 19.0171C30.7429 19.2528 31.5136 19.5821 32.1662 20.138C32.5376 20.4546 32.8639 20.8122 32.9478 21.3183C33.0451 21.9066 32.9276 22.4363 32.511 22.8915C31.9979 23.4525 31.3601 23.8165 30.6644 24.0863C29.2191 24.6466 27.7156 24.8382 26.174 24.7442C25.7272 24.717 25.2827 24.6503 24.8369 24.6045C24.6651 24.587 24.5469 24.4971 24.4668 24.3503C24.3728 24.1785 24.2722 24.0095 24.1927 23.8314C24.1688 23.7782 24.188 23.6899 24.2166 23.632C24.4297 23.1983 24.616 22.7575 24.6924 22.275C24.852 21.2671 24.62 20.3522 24.0492 19.5161C23.9482 19.3679 23.8401 19.2248 23.7364 19.0783C23.7266 19.0652 23.7243 19.0474 23.7095 19.0059Z" fill="#08C5EB"/>
<path d="M10.6341 24.8298C10.8004 24.9735 10.951 25.1069 11.1045 25.2359C11.7231 25.7558 12.4292 26.1127 13.199 26.3457C14.6732 26.7922 16.1795 26.904 17.7089 26.7636C18.4369 26.697 19.1532 26.5683 19.8485 26.3427C20.7998 26.0339 21.6618 25.5756 22.3464 24.7954C22.7084 25.3285 22.7774 25.8915 22.5326 26.4801C22.3151 27.0027 21.8999 27.357 21.4376 27.656C20.6304 28.1779 19.7337 28.4756 18.7986 28.6584C16.8654 29.0366 14.95 28.9756 13.0677 28.3641C12.2774 28.1075 11.5369 27.7503 10.9459 27.1448C10.5428 26.7316 10.289 26.2515 10.3378 25.6537C10.3637 25.3416 10.4691 25.0571 10.6341 24.8298Z" fill="#08C5EB"/>
<path d="M10.6432 28.9292C10.6921 28.9696 10.7345 28.9969 10.7671 29.0326C11.4292 29.7609 12.2686 30.2021 13.1967 30.4688C15.3467 31.087 17.5099 31.1038 19.6708 30.5199C20.4513 30.3091 21.1699 29.9566 21.8057 29.4508C21.9451 29.3397 22.074 29.2134 22.1963 29.0834C22.338 28.9319 22.3922 28.9289 22.4815 29.1235C22.7384 29.6818 22.7488 30.2384 22.435 30.7816C22.1242 31.319 21.6514 31.6837 21.1197 31.9763C20.0772 32.5504 18.9481 32.8441 17.7699 32.9421C16.728 33.0286 15.6811 33.0209 14.6467 32.87C13.3853 32.6858 12.1892 32.3036 11.1763 31.4874C10.7709 31.1607 10.4607 30.759 10.3587 30.2317C10.2681 29.7633 10.3876 29.338 10.6432 28.9292Z" fill="#08C5EB"/>
</svg>
