<svg width="31" height="29" viewBox="0 0 31 29" fill="none" xmlns="http://www.w3.org/2000/svg">
<path d="M13.123 28.9998C12.3115 28.993 11.5763 28.7671 10.9387 28.2786C8.71624 26.5735 6.49799 24.8644 4.27692 23.1579C3.3424 22.4394 2.40223 21.7264 1.46912 21.0079C-0.172291 19.7437 -0.476257 17.6685 0.749503 16.1213C1.92861 14.6339 4.18078 14.3264 5.71899 15.479C7.44806 16.7744 9.15027 18.1039 10.8624 19.4185C11.2441 19.711 11.6329 19.9954 12.0019 20.303C12.1716 20.4459 12.2479 20.4323 12.3638 20.2499C13.1372 19.032 13.919 17.8182 14.7022 16.6057C17.1976 12.7411 19.6944 8.87776 22.1883 5.0131C22.9051 3.90269 23.6162 2.78684 24.3344 1.67644C25.8076 -0.597451 29.1668 -0.553906 30.524 1.78122C31.1913 2.92973 31.1532 4.12178 30.4335 5.2526C29.0834 7.37272 27.7134 9.48195 26.3505 11.5953C24.1605 14.9918 21.9692 18.3883 19.7792 21.7849C18.5874 23.6315 17.3984 25.4794 16.2051 27.326C15.5081 28.4024 14.3813 29.0121 13.123 28.9998Z" fill="#56B948"/>
</svg>
