<svg width="16" height="23" viewBox="0 0 16 23" fill="none" xmlns="http://www.w3.org/2000/svg">
<path d="M3.69821 22.6683C3.66262 22.6494 3.62761 22.6281 3.59087 22.6115C3.2103 22.4427 2.99964 22.0725 3.06623 21.6868C3.13281 21.3016 3.47664 21.0037 3.89452 21.0002C4.9151 20.9922 5.93569 20.9968 6.95628 20.9968C7.04008 20.9968 7.12331 20.9968 7.22262 20.9968C7.22262 20.4142 7.22262 19.8517 7.22262 19.2754C6.92815 19.2185 6.62794 19.1743 6.3352 19.1026C3.78833 18.4781 2.06171 16.8949 1.04457 14.5157C0.670317 13.6403 0.540017 12.7053 0.544035 11.7536C0.546331 11.2289 0.542313 10.7048 0.545183 10.1802C0.548053 9.65096 0.895328 9.27269 1.37405 9.2704C1.86253 9.2681 2.20808 9.64924 2.21382 10.1923C2.22071 10.865 2.20808 11.5394 2.2431 12.211C2.31944 13.6948 2.92559 14.9508 3.99497 15.9662C5.81457 17.694 7.95849 18.1153 10.2597 17.2083C12.2802 16.4122 13.5384 14.8612 13.8559 12.6743C13.977 11.8391 13.923 10.9786 13.946 10.1297C13.9603 9.61365 14.3524 9.23883 14.8483 9.27269C15.2306 9.2991 15.6008 9.63145 15.6043 10.0097C15.614 11.0429 15.6806 12.0807 15.5078 13.1071C15.3104 14.2798 14.8449 15.3422 14.1199 16.2853C13.2979 17.3547 12.2888 18.1916 11.0363 18.7186C10.4462 18.9665 9.83378 19.1341 9.1995 19.2231C9.11569 19.2352 9.03246 19.2512 8.93546 19.2679C8.93546 19.8356 8.93546 20.3987 8.93546 20.9968C9.01811 20.9968 9.09962 20.9968 9.18113 20.9968C10.1948 20.9968 11.208 20.9928 12.2217 20.9991C12.7526 21.0025 13.1251 21.3808 13.0987 21.8779C13.0815 22.2039 12.907 22.4318 12.6252 22.5834C12.5706 22.6126 12.5155 22.6402 12.461 22.6689C9.54046 22.6683 6.61933 22.6683 3.69821 22.6683Z" fill="#130229" fill-opacity="0.5"/>
<path d="M3.90594 8.41511C3.90594 7.21773 3.88068 6.01978 3.91168 4.82354C3.96047 2.92473 5.54473 1.19582 7.4269 0.940382C9.37107 0.676338 11.096 1.61714 11.9179 3.39369C12.1596 3.91604 12.2618 4.46996 12.2618 5.04339C12.2606 7.34573 12.287 9.64923 12.2468 11.951C12.2136 13.855 10.8669 15.4329 9.00313 15.8669C6.74096 16.3932 4.39442 14.8744 3.96965 12.5973C3.91053 12.2793 3.89848 11.9493 3.89561 11.625C3.887 10.555 3.89216 9.48506 3.89216 8.41569C3.89675 8.41511 3.90135 8.41511 3.90594 8.41511Z" fill="#130229" fill-opacity="0.5"/>
</svg>
