<svg width="36" height="33" viewBox="0 0 36 33" fill="none" xmlns="http://www.w3.org/2000/svg">
<path d="M18.004 0.00138537C22.4377 0.00138537 26.8713 -0.00285733 31.307 0.00350672C34.0181 0.00562807 35.5328 1.533 35.5349 4.26742C35.5391 10.3175 35.5413 16.3676 35.5349 22.4177C35.5328 25.063 33.9863 26.6031 31.3367 26.6074C27.0092 26.6137 22.6795 26.6201 18.3519 26.5968C17.7198 26.5925 17.391 26.7219 17.1131 27.3732C15.6536 30.7843 13.0274 32.7402 9.31924 32.9035C5.56869 33.069 2.69002 31.374 1.00779 28.0117C-0.674443 24.6472 -0.203503 21.4143 2.06846 18.4126C2.35485 18.0329 2.55425 17.4813 2.5585 17.0083C2.59244 11.9785 2.57971 6.94881 2.58183 1.91909C2.58183 0.345044 2.92337 0.00350672 4.49529 0.00138537C8.99467 -0.000735979 13.4983 0.00138537 18.004 0.00138537ZM5.16351 15.9645C11.1436 13.5398 17.4058 17.2755 17.8683 24.0596C22.5331 24.0596 27.2043 24.0851 31.8734 24.0108C32.2489 24.0045 32.9065 23.3384 32.9341 22.9438C33.0529 21.2425 32.985 19.5263 32.985 17.738C31.9328 17.738 30.991 17.7465 30.047 17.7359C27.3847 17.7104 25.3991 15.8182 25.397 13.3065C25.3948 10.7948 27.3783 8.89197 30.0364 8.86863C31.0058 8.86015 31.9753 8.86651 32.9999 8.86651C32.9999 7.3158 33.002 5.91359 32.9999 4.51138C32.9978 2.8546 32.6796 2.53216 31.044 2.53216C22.7771 2.53004 14.5081 2.53216 6.24116 2.53216C5.89962 2.53216 5.55596 2.53216 5.16351 2.53216C5.16351 7.05488 5.16351 11.4736 5.16351 15.9645ZM8.96073 17.7422C5.47747 17.7231 2.61153 20.5318 2.57759 23.9981C2.54365 27.5217 5.39898 30.4067 8.91406 30.4067C12.3846 30.4046 15.2357 27.5641 15.2463 24.0957C15.2569 20.6209 12.4291 17.7613 8.96073 17.7422ZM32.9511 11.4121C31.7759 11.4121 30.7215 11.3676 29.6715 11.4249C28.6978 11.4779 27.9723 12.284 27.932 13.2216C27.8917 14.1572 28.562 15.0778 29.5124 15.1542C30.6494 15.2454 31.7992 15.1754 32.949 15.1754C32.9511 13.8771 32.9511 12.6955 32.9511 11.4121Z" fill="#08C5EB"/>
<path d="M11.9838 25.3792H5.83609C5.08725 25.3792 4.48267 24.7725 4.48267 24.0258C4.48267 23.2769 5.08937 22.6724 5.83609 22.6724H11.9838C12.7326 22.6724 13.3372 23.2791 13.3372 24.0258C13.3393 24.7746 12.7326 25.3792 11.9838 25.3792Z" fill="#08C5EB"/>
</svg>
