<svg width="26" height="18" viewBox="0 0 26 18" fill="none" xmlns="http://www.w3.org/2000/svg">
<path d="M14.9814 10.2435C15.5032 11.0038 16.0151 11.7491 16.526 12.4948C16.9142 13.0613 17.2845 13.6409 17.6945 14.1915C18.0958 14.7302 17.9534 15.6734 17.0124 15.8945C15.9573 16.142 14.9031 16.3927 13.8489 16.6452C12.7596 16.9059 11.6717 17.1744 10.5816 17.431C10.0301 17.5607 9.47141 17.1889 9.32946 16.6152C9.20069 16.0942 9.55104 15.4927 10.0843 15.3635C11.5685 15.0045 13.0558 14.6578 14.5414 14.3052C14.5841 14.2952 14.6242 14.2729 14.6797 14.2506C14.4963 14.0673 14.3253 13.8875 14.1451 13.7174C13.1664 12.7924 12.1854 11.8706 11.2058 10.9465C10.3573 10.1461 10.4487 8.89082 11.3651 8.16466C11.8669 7.76654 12.3074 7.29108 12.7746 6.84974C13.8307 5.85285 14.8863 4.85551 15.9614 3.83997C15.6843 3.50646 15.3877 3.19388 15.1456 2.844C14.9136 2.50867 14.6192 2.4436 14.2406 2.45088C13.2265 2.4709 12.2114 2.43814 11.1976 2.46499C10.6312 2.48 10.113 1.95949 10.1284 1.43898C10.1466 0.824747 10.5816 0.373396 11.2081 0.372031C12.5412 0.369301 13.8744 0.373396 15.2075 0.369756C15.5697 0.368846 15.8727 0.485779 16.1088 0.764688C16.8163 1.60142 17.5252 2.43769 18.2323 3.27533C18.8419 3.9974 19.4566 4.71537 20.054 5.44745C20.2274 5.65993 20.3753 5.90335 20.4872 6.15405C20.7543 6.75146 20.9981 7.35932 21.2393 7.9681C21.3148 8.15829 21.4081 8.24019 21.6306 8.23655C22.5847 8.22108 23.5393 8.22608 24.4934 8.23109C25.1782 8.23518 25.625 8.7152 25.5867 9.39177C25.5603 9.86132 25.1304 10.3081 24.6586 10.3122C23.3027 10.3231 21.9468 10.3268 20.5914 10.314C20.1387 10.3099 19.8407 10.046 19.6709 9.62882C19.4039 8.97454 19.13 8.32254 18.8583 7.67054C18.8447 7.63778 18.8206 7.60911 18.7942 7.5668C17.5202 8.45995 16.2562 9.34763 14.9814 10.2435Z" fill="white"/>
<path d="M9.34797 9.88501C9.44079 10.9174 9.98541 11.6508 10.7548 12.2673C10.1638 12.7242 9.59821 13.1614 9.03312 13.5986C7.5776 14.7261 6.12208 15.8536 4.66611 16.9806C4.37355 17.2072 4.08464 17.4392 3.78434 17.6544C3.24791 18.0389 2.60637 17.9461 2.19187 17.436C1.81969 16.9783 1.87384 16.3099 2.35203 15.8909C3.36302 15.0041 4.38766 14.1333 5.40775 13.2574C6.32456 12.4698 7.24318 11.684 8.16135 10.8978C8.54491 10.5693 8.92983 10.2417 9.34797 9.88501Z" fill="white"/>
<path d="M24.5424 3.24394C24.5774 4.30315 23.6651 5.39877 22.3566 5.40514C21.1791 5.41106 20.1694 4.39461 20.184 3.21709C20.1995 1.95404 21.2478 0.989912 22.474 1.04087C23.52 1.08364 24.5856 2.00181 24.5424 3.24394Z" fill="white"/>
<path d="M5.96034 6.80977C6.86168 6.80977 7.76256 6.80613 8.6639 6.81159C8.96601 6.81341 9.17895 6.97539 9.26676 7.23792C9.3614 7.52001 9.29952 7.8012 9.06065 7.96545C8.93189 8.05372 8.75717 8.11924 8.60293 8.12015C6.83256 8.13061 5.06173 8.1297 3.29136 8.1247C2.88597 8.12379 2.58567 7.81803 2.59341 7.44449C2.60114 7.07503 2.8887 6.81023 3.30228 6.80841C4.18815 6.80431 5.07447 6.80704 5.96034 6.80704C5.96034 6.80841 5.96034 6.80932 5.96034 6.80977Z" fill="white"/>
<path d="M8.4139 5.63716C7.53622 5.63716 6.65854 5.63807 5.78132 5.6367C5.37137 5.63625 5.09337 5.38919 5.08518 5.02337C5.07608 4.61252 5.34726 4.32041 5.76858 4.3195C7.54668 4.3145 9.32524 4.31495 11.1033 4.3195C11.5097 4.32041 11.7826 4.61297 11.7763 5.01154C11.7704 5.37781 11.4969 5.63397 11.092 5.63579C10.1993 5.63989 9.30659 5.63716 8.4139 5.63716Z" fill="white"/>
<path d="M3.48486 10.5917C2.58489 10.5917 1.68446 10.5981 0.784492 10.589C0.346791 10.5844 0.0769814 10.2523 0.1334 9.81956C0.174804 9.49925 0.471003 9.26993 0.856381 9.26948C2.21089 9.26766 3.5654 9.26857 4.92036 9.26857C5.32894 9.26857 5.73798 9.26311 6.1461 9.27039C6.46551 9.2763 6.71985 9.46558 6.80038 9.73675C6.88546 10.0234 6.78218 10.326 6.52238 10.487C6.43138 10.5435 6.31354 10.583 6.20753 10.5839C5.29982 10.5912 4.39211 10.588 3.48486 10.588C3.48486 10.5894 3.48486 10.5908 3.48486 10.5917Z" fill="white"/>
</svg>
